<svg xmlns="http://www.w3.org/2000/svg" xml:space="preserve" id="Layer_1" width="150" height="30" x="0" y="0" style="enable-background:new 0 0 150 30" version="1.1"><style>.st0,.st1{fill:#fff}.st1{fill-rule:evenodd;clip-rule:evenodd}</style><path d="M54.5 15a4.5 4.5 0 1 1-9 0 4.5 4.5 0 0 1 9 0zM8.729 28.989.689 1.004h5.269l5.038 19.814 4.952-19.814h4.079l4.925 19.814 5.084-19.814h5.269l-8.087 27.985h-4.381l-4.872-18.63-4.816 18.63h-4.42z" class="st0"/><path d="M67 .733V28.99h4.996V18.53h.17l7.365 10.459h6.327L77.926 18.53c2.266-.189 4.098-1.154 5.514-2.818 1.397-1.702 2.115-3.707 2.115-6.014 0-2.78-.925-4.955-2.757-6.563C80.966 1.527 78.341.733 74.942.733H67zm4.996 13.447V5.745h3.097c1.605 0 2.871.359 3.796 1.04.925.7 1.416 1.759 1.435 3.177 0 1.456-.472 2.515-1.416 3.196s-2.209 1.021-3.815 1.021h-3.097v.001z" class="st1"/><path d="M89.005 28.989V1.007h5.443v11.982l8.763-11.982h6.138L98.753 14.634l10.576 14.355h-6.119L94.447 16.62v12.369h-5.442zM112 28.996v-3.989h3.997v3.989H112zM131.001 14.008V28.99h-3.324v-1.4h-.057a5.304 5.304 0 0 1-1.718 1.4 4.902 4.902 0 0 1-2.191.492c-2.039 0-3.569-.624-4.589-1.891s-1.511-3.102-1.492-5.504v-8.078h3.626v7.587c-.019 1.57.227 2.705.737 3.423.51.719 1.284 1.059 2.341 1.059 1.02.019 1.794-.34 2.304-1.059s.756-1.854.756-3.423v-7.587h3.607v-.001z" class="st0"/><path d="M148.994 28.989V14.004h-3.324v2.049h-.057a5.675 5.675 0 0 0-2.077-1.948c-.831-.435-1.775-.662-2.833-.662-2.096 0-3.871.776-5.307 2.326-1.435 1.551-2.152 3.499-2.152 5.844s.717 4.256 2.171 5.712c1.436 1.456 3.173 2.175 5.175 2.175.963-.019 1.869-.246 2.757-.643s1.624-1.04 2.266-1.891h.057v2.024l3.324-.001zm-10.897-10.818c.812-.889 1.87-1.343 3.173-1.343 1.284 0 2.323.435 3.135 1.305.793.87 1.189 1.967 1.189 3.272 0 1.4-.396 2.516-1.189 3.367-.794.851-1.832 1.286-3.116 1.286-1.322 0-2.399-.435-3.211-1.267-.831-.832-1.227-1.91-1.209-3.215 0-1.363.416-2.497 1.228-3.405zM50 29.64c8.008 0 14.65-6.632 14.65-14.64S58.008.35 50 .35 35.35 6.992 35.35 15 41.992 29.64 50 29.64zm0-5.14c5.247 0 9.5-4.253 9.5-9.5S55.247 5.5 50 5.5s-9.5 4.253-9.5 9.5 4.253 9.5 9.5 9.5z" class="st1"/></svg>