<svg width="150" height="30" viewBox="0 0 150 30" fill="none" xmlns="http://www.w3.org/2000/svg">
<path d="M54.5 15C54.5 16.1935 54.0259 17.3381 53.1819 18.182C52.338 19.0259 51.1934 19.5 50 19.5C48.8065 19.5 47.6619 19.0259 46.818 18.182C45.9741 17.3381 45.5 16.1935 45.5 15C45.5 13.8065 45.9741 12.6619 46.818 11.818C47.6619 10.9741 48.8065 10.5 50 10.5C51.1934 10.5 52.338 10.9741 53.1819 11.818C54.0259 12.6619 54.5 13.8065 54.5 15ZM8.72896 28.989L0.688965 1.004H5.95796L10.996 20.818L15.948 1.004H20.027L24.952 20.818L30.036 1.004H35.305L27.218 28.989H22.837L17.965 10.359L13.149 28.989H8.72896Z" fill="black"/>
<path fill-rule="evenodd" clip-rule="evenodd" d="M67 0.733002V28.99H71.996V18.53H72.166L79.531 28.989H85.858L77.926 18.53C80.192 18.341 82.024 17.376 83.44 15.712C84.837 14.01 85.555 12.005 85.555 9.698C85.555 6.918 84.63 4.743 82.798 3.135C80.966 1.527 78.341 0.733002 74.942 0.733002H67ZM71.996 14.18V5.745H75.093C76.698 5.745 77.964 6.104 78.889 6.785C79.814 7.485 80.305 8.544 80.324 9.962C80.324 11.418 79.852 12.477 78.908 13.158C77.964 13.839 76.699 14.179 75.093 14.179H71.996V14.18Z" fill="black"/>
<path d="M89.0049 28.989V1.007H94.4479V12.989L103.211 1.007H109.349L98.7529 14.634L109.329 28.989H103.21L94.4469 16.62V28.989H89.0049ZM112 28.996V25.007H115.997V28.996H112ZM131.001 14.008V28.99H127.677V27.59H127.62C127.152 28.1724 126.567 28.6495 125.902 28.99C125.219 29.3213 124.469 29.4897 123.711 29.482C121.672 29.482 120.142 28.858 119.122 27.591C118.102 26.324 117.611 24.489 117.63 22.087V14.009H121.256V21.596C121.237 23.166 121.483 24.301 121.993 25.019C122.503 25.738 123.277 26.078 124.334 26.078C125.354 26.097 126.128 25.738 126.638 25.019C127.148 24.3 127.394 23.165 127.394 21.596V14.009L131.001 14.008Z" fill="black"/>
<path fill-rule="evenodd" clip-rule="evenodd" d="M148.994 28.989V14.004H145.67V16.053H145.613C145.098 15.2377 144.383 14.5673 143.536 14.105C142.705 13.67 141.761 13.443 140.703 13.443C138.607 13.443 136.832 14.219 135.396 15.769C133.961 17.32 133.244 19.268 133.244 21.613C133.244 23.958 133.961 25.869 135.415 27.325C136.851 28.781 138.588 29.5 140.59 29.5C141.553 29.481 142.459 29.254 143.347 28.857C144.235 28.46 144.971 27.817 145.613 26.966H145.67V28.99L148.994 28.989ZM138.097 18.171C138.909 17.282 139.967 16.828 141.27 16.828C142.554 16.828 143.593 17.263 144.405 18.133C145.198 19.003 145.594 20.1 145.594 21.405C145.594 22.805 145.198 23.921 144.405 24.772C143.611 25.623 142.573 26.058 141.289 26.058C139.967 26.058 138.89 25.623 138.078 24.791C137.247 23.959 136.851 22.881 136.869 21.576C136.869 20.213 137.285 19.079 138.097 18.171ZM50.0001 29.64C58.0081 29.64 64.6501 23.008 64.6501 15C64.6501 6.99201 58.0081 0.350006 50.0001 0.350006C41.9921 0.350006 35.3501 6.99201 35.3501 15C35.3501 23.008 41.9921 29.64 50.0001 29.64ZM50.0001 24.5C55.2471 24.5 59.5001 20.247 59.5001 15C59.5001 9.75301 55.2471 5.50001 50.0001 5.50001C44.7531 5.50001 40.5001 9.75301 40.5001 15C40.5001 20.247 44.7531 24.5 50.0001 24.5Z" fill="black"/>
</svg>
