<!-- sample rectangle -->
<svg width="161" height="40" viewBox="0 0 161 40" fill="none" xmlns="http://www.w3.org/2000/svg">
<g clip-path="url(#clip0)">
  <path fill="currentColor" d="M160.137 12.7304C160.137 15.1195 158.191 17.0648 155.802 17.0648C153.413 17.0648 151.468 15.1195 151.468 12.7304C151.468 10.3413 153.413 8.3959 155.802 8.3959C158.191 8.3959 160.137 10.3072 160.137 12.7304Z">
  </path>
  <path fill="currentColor" d="M39.4201 14.6758C38.6692 13.4812 37.3382 12.6621 35.8023 12.6621C34.2665 12.6621 32.9354 13.4812 32.1846 14.6758H39.4201Z">
  </path>
  <path fill="currentColor" d="M100 15.529C100.034 15.2901 100.103 15.0512 100.103 14.7782C100.103 12.3891 98.1571 10.4437 95.7681 10.4437C93.379 10.4437 91.4336 12.3891 91.4336 14.7782C91.4336 15.0512 91.4677 15.2901 91.536 15.529H100Z">
  </path>
  <path fill="currentColor" d="M41.3989 34.8805C40.2385 34.8805 39.317 35.4607 39.0439 36.4164V36.4505H40.1361C40.3067 36.0409 40.7504 35.8362 41.3989 35.8362C42.2521 35.8362 42.73 36.1775 42.73 36.7918V36.8259H41.3306C40.5115 36.8259 39.1463 37.0307 39.1463 38.3618C39.1463 39.3856 39.8631 39.9658 41.0576 39.9658C41.7743 39.9658 42.3204 39.7611 42.6617 39.3856L42.73 39.3174V39.8293H43.7538V36.7918C43.788 35.6314 42.8665 34.8805 41.3989 34.8805ZM41.3306 37.645H42.7641V37.9522C42.7641 38.6348 42.1498 39.1126 41.2624 39.1126C40.5798 39.1126 40.2044 38.8396 40.2044 38.3618C40.1702 38.0546 40.375 37.645 41.3306 37.645Z">
  </path>
  <path fill="currentColor" d="M51.4669 33.7884H50.443V35.0171H49.5557V35.9044H50.443V38.3618C50.443 39.3174 51.0915 39.8293 52.2519 39.8293H53.0028V38.942H52.2519C51.74 38.942 51.4669 38.6689 51.4669 38.157V35.9044H53.0028V35.0171H51.4669V33.7884Z">
  </path>
  <path fill="currentColor" d="M60.3405 33.7884H59.3166V35.0171H58.7705V35.9044H59.3166V38.3618C59.3166 39.3174 59.9651 39.8293 61.1255 39.8293H61.8763V38.942H61.1255C60.6135 38.942 60.3405 38.6689 60.3405 38.157V35.9044H61.8763V35.0171H60.3405V33.7884Z">
  </path>
  <path fill="currentColor" d="M69.556 35.5973L69.4878 35.6996V35.017H68.4639V39.8293H69.4878V37.5085C69.4878 36.5529 70.068 35.9386 71.0236 35.9386H71.4332V34.9488H71.0236C70.341 34.9829 69.7949 35.2218 69.556 35.5973Z">
  </path>
  <path fill="currentColor" d="M79.4192 34.8805C77.9516 34.8805 76.8936 35.9385 76.8936 37.4402C76.8936 38.9078 77.9857 40 79.4533 40C80.4772 40 81.3646 39.4539 81.74 38.5324V38.4983H80.6137C80.3748 38.8396 79.9652 39.0102 79.4533 39.0102C78.6683 39.0102 78.0881 38.5324 77.9516 37.8157V37.7815H81.8424V37.7474C81.8424 37.645 81.8424 37.5768 81.8424 37.4744V37.372C81.8765 35.9385 80.8185 34.8805 79.4192 34.8805ZM80.7843 36.9966H77.9857V36.9624C78.0881 36.314 78.6683 35.8362 79.4192 35.8362C80.1359 35.8362 80.6478 36.2798 80.7843 36.9624V36.9966Z">
  </path>
  <path fill="currentColor" d="M89.5895 35.7679C90.2721 35.7679 90.7158 35.9727 90.9547 36.3481H92.081V36.314C91.7738 35.3925 90.8864 34.8805 89.6236 34.8805C88.3608 34.8805 87.4734 35.529 87.4734 36.4164C87.4734 37.2696 87.9513 37.6792 89.0775 37.8157L90.0673 37.9181C90.511 37.9522 90.9888 38.0546 90.9888 38.4983C90.9888 38.8737 90.5792 39.0785 89.9308 39.0785C89.1458 39.0785 88.6339 38.8737 88.4632 38.43H87.3369V38.4641C87.61 39.4198 88.5315 40 89.8284 40C91.1595 40 92.0127 39.3856 92.0127 38.4641C92.0127 37.6109 91.4666 37.1331 90.3403 37.0307L89.4188 36.9624C88.941 36.9283 88.4632 36.8259 88.4632 36.3822C88.4973 36.0068 88.9069 35.7679 89.5895 35.7679Z">
  </path>
  <path fill="currentColor" d="M99.8629 35.7679C100.546 35.7679 100.989 35.9727 101.228 36.3481H102.354V36.314C102.047 35.3925 101.16 34.8805 99.897 34.8805C98.6342 34.8805 97.7469 35.529 97.7469 36.4164C97.7469 37.2696 98.2247 37.6792 99.351 37.8157L100.341 37.9181C100.784 37.9522 101.262 38.0546 101.262 38.4983C101.262 38.8737 100.853 39.0785 100.204 39.0785C99.4192 39.0785 98.9073 38.8737 98.7366 38.43H97.6104V38.4641C97.8834 39.4198 98.8049 40 100.102 40C101.433 40 102.286 39.3856 102.286 38.4641C102.286 37.6109 101.74 37.1331 100.648 37.0307L99.7264 36.9624C99.2486 36.9283 98.7708 36.8259 98.7708 36.3822C98.7708 36.0068 99.2144 35.7679 99.8629 35.7679Z">
  </path>
  <path fill="currentColor" d="M112.422 37.4061C112.422 35.9727 111.399 34.9147 109.965 34.9147C108.497 34.9147 107.439 35.9727 107.439 37.4744C107.439 38.942 108.532 40.0341 109.999 40.0341C111.023 40.0341 111.91 39.488 112.286 38.5665V38.5324H111.16C110.921 38.8737 110.511 39.0444 109.999 39.0444C109.214 39.0444 108.634 38.5665 108.497 37.8498V37.8157H112.388V37.7816C112.388 37.6792 112.388 37.5768 112.388 37.5085L112.422 37.4061ZM111.33 36.9966H108.532V36.9625C108.634 36.314 109.214 35.8362 109.965 35.8362C110.682 35.8362 111.194 36.2799 111.33 36.9625V36.9966Z">
  </path>
  <path fill="currentColor" d="M120.545 37.0307L119.624 36.9624C119.146 36.9283 118.668 36.8259 118.668 36.3822C118.668 36.0068 119.078 35.7679 119.76 35.7679C120.443 35.7679 120.887 35.9727 121.126 36.3481H122.252V36.314C121.945 35.3925 121.057 34.8805 119.795 34.8805C118.532 34.8805 117.644 35.529 117.644 36.4164C117.644 37.2696 118.122 37.6792 119.248 37.8157L120.238 37.9181C120.682 37.9522 121.16 38.0546 121.16 38.4983C121.16 38.8737 120.75 39.0785 120.102 39.0785C119.317 39.0785 118.805 38.8737 118.634 38.43H117.508V38.4641C117.781 39.4198 118.702 40 119.999 40C121.33 40 122.184 39.3856 122.184 38.4641C122.184 37.5768 121.638 37.1331 120.545 37.0307Z">
  </path>
  <path fill="currentColor" d="M31.8767 34.8805C31.7743 34.8805 31.6719 34.8805 31.5695 34.9147C30.8187 34.9829 30.2385 35.3242 29.8289 35.9044C29.4194 35.3242 28.8392 34.9829 28.0883 34.9147C27.9859 34.9147 27.8835 34.8805 27.7811 34.8805C26.5183 34.8805 25.6992 35.6996 25.6992 36.9624V39.8635H26.7231V37.1331C26.7231 36.314 27.1668 35.8703 27.9518 35.8703C28.6344 35.8703 29.317 36.4164 29.317 37.4061V39.8976H30.3409V37.4061C30.3409 36.4164 31.0576 35.8703 31.706 35.8703C32.491 35.8703 32.9347 36.314 32.9347 37.1331V39.8635H33.9586V36.9624C33.9586 35.6996 33.1395 34.8805 31.8767 34.8805Z">
  </path>
  <path fill="currentColor" d="M22.0819 4.19795C19.8293 1.46758 16.4164 0 12.6621 0C9.0785 0 5.9727 1.29693 3.65188 3.75427C1.33106 6.2116 0 9.14676 0 12.6621C0 16.2799 1.43345 19.3515 3.85666 21.7747C6.27986 24.198 9.24915 25.3242 12.7645 25.3242C15.3584 25.3242 17.6109 24.5051 19.7611 23.1399C20.8874 22.4232 23.413 20.0341 24.198 17.8157H18.9079C18.3959 18.4642 17.2696 19.3174 16.6894 19.6246C15.5631 20.2389 14.4369 20.6826 13.0375 20.6826C10.9215 20.7167 9.21502 20.2048 7.8157 19.1126C6.51877 18.0887 5.39249 16.6553 4.91468 14.7782H25.2218L25.256 14.3686C25.529 10.0341 24.3345 6.92833 22.0819 4.19795ZM5.05119 10.1706C5.49488 8.49829 6.72355 7.06485 7.91809 6.14334C9.18089 5.15358 10.7509 4.60751 12.6621 4.60751C12.7645 4.60751 12.8669 4.64164 12.9693 4.64164L12.9352 4.60751C16.6553 4.60751 18.9078 7.2355 19.8635 9.04437C19.8976 9.11263 19.9317 9.18089 19.9659 9.24915C20.1706 9.62457 20.273 9.93174 20.3413 10.2048H5.05119V10.1706Z">
  </path>
  <path fill="currentColor" d="M84.4715 9.35155C84.1302 7.16724 83.2428 5.29011 81.8093 3.72015C79.9322 1.70649 77.4749 0.682603 74.4373 0.682603C70.9902 0.682603 68.3281 2.11605 66.4851 5.01707C65.1199 3.00342 63.4817 1.84301 61.7752 1.19455C61.3657 1.05803 59.625 0.443695 57.6114 0.443695C52.253 0.443695 47.4407 3.51537 46.4851 10.2389C46.3827 11.058 46.3486 12.1502 46.3145 13.2765V24.3003H51.7069V12.3891C51.7069 9.45393 52.5261 8.15701 53.311 7.26963C54.4032 6.04097 55.7684 5.49489 57.236 5.49489C58.8401 5.49489 60.1711 6.10922 61.2291 7.26963C62.1848 8.32765 62.8332 9.55632 62.8332 12.0478V24.2662H68.2257V12.1843C68.2257 9.45393 69.1131 8.05462 69.7957 7.30376C70.8878 6.07509 72.253 5.49489 73.7547 5.49489C75.3247 5.49489 76.6216 6.07509 77.6796 7.26963C78.4646 8.15701 79.2496 9.45393 79.2496 11.843V24.3003H84.6421V12.4573C84.608 11.4676 84.5738 10.1365 84.4715 9.35155Z">
  </path>
  <path fill="currentColor" d="M144.846 9.35153C144.505 7.16723 143.618 5.29009 142.184 3.72013C140.273 1.67234 137.816 0.648454 134.812 0.648454C131.365 0.648454 128.703 2.0819 126.86 4.98293C125.495 2.96927 123.857 1.80886 122.15 1.1604C121.741 1.02388 120 0.409546 117.986 0.409546C112.628 0.409546 107.816 3.48122 106.86 10.2048C106.758 11.0239 106.724 12.116 106.689 13.2423V24.2662H112.082V12.3891C112.082 9.45391 112.901 8.15699 113.686 7.26961C114.778 6.04095 116.143 5.49487 117.611 5.49487C119.215 5.49487 120.546 6.1092 121.604 7.26961C122.56 8.32764 123.208 9.5563 123.208 12.0478V24.2662H128.601V12.1843C128.601 9.45392 129.488 8.0546 130.171 7.30374C131.263 6.07508 132.628 5.49487 134.13 5.49487C135.7 5.49487 136.997 6.07508 138.055 7.26961C138.84 8.15699 139.625 9.45392 139.625 11.843V24.3003H145.017V12.4573C144.983 11.4676 144.949 10.1365 144.846 9.35153Z">
  </path>
</g>
<defs>
  <clipPath id="clip0">
    <rect width="160.137" height="40" fill="white">
    </rect>
  </clipPath>
</defs>
</svg>