<svg xmlns="http://www.w3.org/2000/svg" width="445" height="150"><path style="stroke:none;fill-rule:nonzero;fill:#080c0b;fill-opacity:1" d="M339.758 45.684v17.109c0 3.39-3.242 6.426-6.746 6.426l1.277 3.258c5.121-.43 9.149-4.61 9.149-9.684V48.73h10.437l-.012 23.747h3.758V45.684ZM322.73 62.41l-5.05-13.46h-1.246l-5.055 13.46Zm1.204 3.23H310.18l-2.594 6.837h-3.941l10.585-26.793h5.649l10.578 26.793h-3.95Zm-45.325-19.956h3.739V56.66h13.597V45.684h3.739v26.793h-3.739V59.723h-13.597v12.754h-3.739Zm-23.882 0h17.476v3.046H258.47v7.93h13.16v3.063h-13.16v9.703h14.07v3.05h-17.812Zm-5.422 24.66c-2.614 1.722-5.543 2.586-8.793 2.586-4.168 0-7.485-1.239-9.91-3.715-2.387-2.48-3.594-5.871-3.594-10.2 0-4.312 1.207-7.699 3.594-10.175 2.425-2.477 5.742-3.719 9.91-3.719 3.328 0 6.254.844 8.793 2.547l-1.594 2.574c-2.094-1.426-4.426-2.144-6.98-2.144-6.372 0-9.782 3.812-9.782 10.918 0 7.109 3.41 10.93 9.781 10.93 2.5 0 4.833-.712 6.98-2.169ZM209.203 48.66v10.067h4.7c3.476 0 5.464-1.813 5.464-5.043 0-3.207-1.988-5.024-5.465-5.024Zm-3.746-2.976h8.445c6.203 0 9.407 2.757 9.407 8 0 5.296-3.204 8.027-9.407 8.027h-4.699v10.766h-3.746ZM193.488 62.41l-5.05-13.46h-1.247l-5.054 13.46Zm1.207 3.23h-13.757l-2.594 6.837h-3.95l10.594-26.793h5.657l10.57 26.793h-3.95ZM430.082 0c.3 1.273 1.516 1.992 3.59 1.992 2.02 0 3.183-.683 3.613-1.992h2.203c-.277 2.855-2.261 4.348-5.816 4.348-3.535 0-5.555-1.493-5.797-4.348Zm9.129 7.324h5.719v26.801h-3.649V10.48l-12.918 23.645h-5.687v-26.8h3.625V30.96Zm-29.656 0h5.722v26.801h-3.64V10.48l-12.93 23.645h-5.684v-26.8h3.625V30.96Zm-39.602 26.801h-3.703v-26.8h3.742V18.43h1.602l12.148-11.106h4.813l-13.739 12.563 14.715 14.238h-4.922L371.555 21.43h-1.602Zm-14.57-11.602c-.957-.808-2.445-1.195-4.461-1.195h-5.996v9.82h5.996c2.015 0 3.504-.418 4.46-1.226.985-.809 1.466-2.027 1.466-3.684 0-1.668-.48-2.906-1.465-3.715m-14.2-15.199h3.743v11.02h6.187c6.2 0 9.684 2.586 9.684 7.894 0 5.297-3.485 7.887-9.684 7.887h-9.933Zm-8.288 26.801h-21.079v-26.8h3.743V31.07h13.59V7.324h3.746V31.07h3.148v8.832h-3.148Zm-44.637-26.8h17.48v3.05h-13.742v7.934h13.168v3.05h-13.168v9.711h14.078v3.055h-17.812Zm-26.63 0h22.653v3.05h-9.441v23.75h-3.766v-23.75h-9.445Zm-3.144 24.655c-2.617 1.735-5.543 2.59-8.8 2.59-4.168 0-7.48-1.238-9.91-3.718-2.391-2.477-3.594-5.864-3.594-10.192 0-4.308 1.203-7.7 3.593-10.18 2.43-2.472 5.743-3.71 9.91-3.71 3.333 0 6.262.84 8.801 2.546l-1.593 2.567c-2.094-1.418-4.43-2.137-6.989-2.137-6.367 0-9.773 3.805-9.773 10.914 0 7.106 3.406 10.93 9.773 10.93 2.504 0 4.836-.715 6.989-2.168ZM224.723 7.324h5.73v26.801h-3.656V10.48l-12.918 23.645h-5.688v-26.8h3.625V30.96Zm-23.637 0v26.801h-3.633V10.59l-7.125 18.379h-5.176l-7.129-18.38v23.536h-3.628v-26.8h5.578l7.132 18.374h1.274l7.129-18.375Zm128.898 115.074h1.856v25.329h13.469v1.472h-15.325Zm-10.566 16.91-5.992-15.253h-1.715l-5.984 15.254Zm5.797 9.891h-1.969l-3.266-8.418h-14.824l-3.265 8.418h-1.97l10.548-26.8h4.207Zm-32.207-26.8h1.855v26.8h-4.324l-13.73-25.144h-1.293v25.144h-1.887v-26.8h4.285l13.77 25.144h1.324Zm-41.848 0h15.633v1.503h-13.77v10.262h13.192v1.473h-13.192v12.09h14.067v1.472h-15.93Zm-7.043 3.05c-1.21-.586-2.539-1.101-4.023-1.578-.942-.297-2.156-.45-3.633-.48-2.164-.036-3.95.402-5.277 1.398-1.25.879-1.86 2.387-1.86 4.555 0 1.328.457 2.39 1.403 3.164.992.847 2.503 1.512 4.515 1.988l2.203.55c1.973.513 3.485 1.102 4.586 1.802 2.012 1.32 2.996 2.976 2.996 5 0 2.902-.867 4.93-2.656 6.066-1.934 1.211-3.906 1.8-5.91 1.8-2.086 0-3.988-.296-5.652-.85a17.48 17.48 0 0 1-3.301-1.684v-1.766c1.703.992 2.918 1.656 3.64 1.91 1.555.621 2.957.918 4.286.918 2.238 0 4.132-.48 5.613-1.43 1.402-.925 2.121-2.539 2.121-4.82 0-1.32-.418-2.387-1.285-3.16-1.254-1.105-2.883-1.875-4.86-2.355l-2.234-.512c-1.785-.406-3.262-.996-4.516-1.766-1.894-1.137-2.84-2.719-2.84-4.703 0-2.465.755-4.375 2.313-5.703 1.438-1.242 3.602-1.875 6.524-1.875 1.703 0 3.03.152 3.94.445 2.352.73 3.642 1.211 3.907 1.399Zm-30.828-1.578-6.68.074v11.657h6.68c2.313 0 3.98-.524 5-1.516 1.027-.988 1.52-2.422 1.52-4.371 0-1.95-.493-3.38-1.52-4.375-1.02-.992-2.687-1.469-5-1.469m8.719 25.328-8.344-12.133h-7.055V149.2h-1.855v-26.8h8.035c3.227 0 5.5.624 6.902 1.91 1.403 1.285 2.09 3.086 2.09 5.406 0 1.875-.492 3.492-1.445 4.816-.984 1.364-2.496 2.172-4.512 2.39l8.461 12.278Zm-28.113-9.89-5.989-15.254h-1.71l-5.997 15.254Zm5.8 9.89h-1.968l-3.266-8.418h-14.828l-3.258 8.418h-1.98l10.546-26.8h4.207Zm201.293-63.691h-6.636v23.86h6.636v1.472h-14.863v-1.473h6.328v-23.86h-6.328V84.04h14.863Zm-38.734-1.469h2.16l8.61 12.352 8.578-12.352h2.078l-9.743 14.043v12.758h-1.898V98.082Zm-3.047 26.8-13.96-13.566h-1.552v13.567h-1.824v-26.8h1.824V95.8h1.668l12.899-11.76h2.465L347 96.573l14.637 14.266Zm-24.664-23.75c-1.211-.589-2.54-1.109-4.016-1.581-.945-.293-2.164-.442-3.64-.477-2.164-.035-3.946.403-5.27 1.395-1.254.883-1.863 2.386-1.863 4.558 0 1.329.457 2.391 1.402 3.16.985.844 2.508 1.508 4.52 1.985l2.195.555c1.969.515 3.492 1.105 4.59 1.8 2.008 1.32 2.992 2.977 2.992 4.996 0 2.91-.871 4.93-2.648 6.07-1.938 1.212-3.907 1.802-5.918 1.802-2.09 0-3.985-.293-5.657-.848a17.175 17.175 0 0 1-3.296-1.692v-1.757c1.703.984 2.921 1.648 3.64 1.91 1.559.62 2.965.914 4.29.914 2.234 0 4.136-.477 5.605-1.43 1.41-.922 2.129-2.539 2.129-4.816 0-1.328-.418-2.39-1.293-3.164-1.246-1.102-2.88-1.875-4.852-2.352l-2.238-.515c-1.777-.403-3.258-.993-4.508-1.766-1.898-1.137-2.848-2.723-2.848-4.7 0-2.464.758-4.382 2.313-5.702 1.445-1.246 3.605-1.875 6.52-1.875 1.714 0 3.038.152 3.945.445 2.351.73 3.648 1.21 3.906 1.394Zm-40.61-3.05h21.508v1.469h-9.828v25.332h-1.851V85.508h-9.828Zm-18.937 0h15.629v1.504h-13.766v10.258h13.2v1.472h-13.2v12.094h14.07v1.473h-15.933Zm-26.219 0h21.512v1.469h-9.82v25.332h-1.864V85.508h-9.828Zm-3.797 3.05a30.948 30.948 0 0 0-4.015-1.581c-.953-.293-2.172-.442-3.649-.477-2.164-.035-3.941.403-5.27 1.395-1.253.883-1.862 2.386-1.862 4.558 0 1.329.46 2.391 1.402 3.16.992.844 2.508 1.508 4.52 1.985l2.195.555c1.972.515 3.492 1.105 4.594 1.8 2.011 1.32 2.996 2.977 2.996 4.996 0 2.91-.875 4.93-2.657 6.07-1.937 1.212-3.906 1.802-5.918 1.802-2.09 0-3.976-.293-5.652-.848-1.062-.399-2.156-.953-3.3-1.692v-1.757c1.71.984 2.921 1.648 3.64 1.91 1.562.62 2.965.914 4.293.914 2.238 0 4.133-.477 5.613-1.43 1.399-.922 2.121-2.539 2.121-4.816 0-1.328-.418-2.39-1.289-3.164-1.25-1.102-2.879-1.875-4.86-2.352l-2.237-.515c-1.778-.403-3.254-.993-4.508-1.766-1.895-1.137-2.848-2.723-2.848-4.7 0-2.464.762-4.382 2.313-5.702 1.445-1.246 3.609-1.875 6.53-1.875 1.704 0 3.032.152 3.942.445 2.348.73 3.64 1.21 3.906 1.394Zm-40.609-3.05h2.164l8.61 12.352 8.566-12.352h2.086l-9.746 14.043v12.758h-1.895V98.082Zm-9.644 0h4.968v26.8h-1.894V85.696h-1.746l-7.739 19.996h-2.539l-7.734-19.996h-1.75v25.145h-1.898v-26.8h4.968l7.664 19.886 7.7-19.887M94.582 7.836v15.762h31.523v31.527h15.762V7.835ZM0 7.836v47.289h15.762V23.598h31.523V7.836Zm126.105 94.582v31.531H94.582v15.762h47.285v-47.293ZM0 102.418v47.293h47.285v-15.762H15.762v-31.531H0"/></svg>