<?xml version="1.0" encoding="UTF-8"?>
<!DOCTYPE svg PUBLIC "-//W3C//DTD SVG 1.1//EN" "http://www.w3.org/Graphics/SVG/1.1/DTD/svg11.dtd">
<!-- Creator: CorelDRAW 2018 (64-Bit) -->
<svg xmlns="http://www.w3.org/2000/svg" xml:space="preserve" width="37.9997mm" height="16.4242mm" version="1.1" style="shape-rendering:geometricPrecision; text-rendering:geometricPrecision; image-rendering:optimizeQuality; fill-rule:evenodd; clip-rule:evenodd"
viewBox="0 0 3799.98 1642.42"
 xmlns:xlink="http://www.w3.org/1999/xlink">
 <defs>
  <style type="text/css">
   <![CDATA[
    .str0 {stroke:#95BA9B;stroke-width:50;stroke-linecap:round;stroke-linejoin:round;stroke-miterlimit:22.9256}
    .fil1 {fill:none}
    .fil0 {fill:black}
    .fil2 {fill:#95BA9B}
   ]]>
  </style>
 </defs>
 <g id="Слой_x0020_1">
  <metadata id="CorelCorpID_0Corel-Layer"/>
  <g id="_2102226312480">
   <path class="fil0" d="M277.9 1158.2l184.02 0 0 28.68 -12.36 0c-14.92,0 -25.66,1.53 -32.07,4.44 -5,2.33 -8.73,6.19 -11.3,11.67 -2.46,5.48 -3.73,16.43 -3.73,32.86l0 214.37c0,38.26 4.66,66.6 13.86,85.01 9.34,18.41 24.74,33.95 46.3,46.41 21.7,12.49 45.35,18.79 71.25,18.79 26.11,0 50.72,-6.77 74.16,-20.19 23.34,-13.39 39.66,-29.26 48.97,-47.68 9.47,-18.44 14.13,-47.47 14.13,-87.23l0 -205.95c0,-15.16 -1.53,-26.11 -4.44,-32.78 -3.02,-6.75 -7.46,-11.67 -13.52,-14.92 -6.06,-3.15 -15.4,-4.79 -28.23,-4.79l-13.27 -0.01 0 -28.68 158.83 0 0 28.68 -10.95 0c-17.97,0 -30.32,3.39 -37.09,10.27 -6.64,6.88 -10.03,19.71 -10.03,38.71l0 219.5c0,40.01 -7.59,73.47 -22.62,100.17 -15.03,26.72 -36.96,47.94 -65.67,63.55 -28.68,15.5 -62.15,23.34 -100.28,23.34 -36.04,0 -68.92,-7.94 -98.9,-23.92 -29.85,-15.85 -51.78,-35.8 -65.88,-59.58 -14,-23.79 -21.01,-53.66 -21.01,-89.56l0 -233.49c0,-15.03 -1.38,-25.64 -4.07,-31.7 -2.67,-6.09 -6.64,-10.4 -11.91,-13.18 -5.24,-2.7 -14.21,-4.1 -27.17,-4.1l-17.02 -0.01 0 -28.68z"/>
   <path class="fil0" d="M775.62 1158.2l184.02 0 0 28.68 -12.94 0c-15.05,0 -25.66,1.88 -31.86,5.5 -6.16,3.6 -10.48,9.21 -13.04,17.01 -1.98,5.61 -3.04,14.92 -3.04,27.89l0 180.97 179.7 -189.39c9.34,-10.27 14.82,-16.91 16.56,-19.95 1.77,-3.02 2.57,-6.16 2.57,-9.45 0,-4.18 -1.98,-7.33 -5.95,-9.45 -4.07,-2.09 -12.59,-3.15 -25.77,-3.15l-10.95 0.02 0 -28.68 170.02 0 0 28.68c-13.41,-0.21 -25.53,1.3 -36.49,4.44 -10.95,3.25 -19.61,7.22 -26.01,12.12 -13.89,10.27 -23.79,18.55 -29.74,24.74l-127.93 130.6 146.13 193.6c13.18,17.49 23.65,29.5 31.35,36.04 7.7,6.54 15.74,11.09 23.92,13.65 8.15,2.67 20.98,3.97 38.23,3.97l0 28.68 -202.18 0 0 -28.68 11.88 0c13.41,0 21.46,-0.37 23.92,-1.06 3.84,-0.93 6.98,-2.67 9.21,-5.48 2.33,-2.7 3.49,-5.48 3.49,-8.52 0,-5.95 -7.91,-19.47 -23.65,-40.59l-107.18 -145.65 -61.12 62.28 0 91.41c0,15.64 1.64,26.25 4.79,31.96 3.15,5.61 8.04,9.79 14.68,12.59 5.24,1.98 19.02,3.04 41.41,3.04l0 28.68 -184.03 0.02 0 -28.68 14.34 0c14.34,0 24.13,-1.4 29.4,-4.31 5.24,-2.8 9.31,-7.59 12.12,-14.23 2.91,-6.67 4.31,-18.44 4.31,-35.35l0 -314.86c0,-16.56 -1.4,-27.89 -4.07,-33.84 -2.8,-6.06 -6.77,-10.27 -12.01,-12.83 -5.24,-2.43 -16.46,-3.73 -33.47,-3.73l-10.62 -0.01 0 -28.68z"/>
   <path class="fil0" d="M1345.63 1195.3l0 179.81 97.61 0c33.02,0 56.33,-2.09 69.64,-6.16 19.13,-5.48 34.05,-15.5 45.14,-30.11 10.95,-14.68 16.43,-33.23 16.43,-55.85 0,-19.24 -3.97,-35.32 -11.91,-48.5 -7.91,-13.07 -18.76,-22.86 -32.41,-29.4 -13.76,-6.54 -34.16,-9.79 -61.46,-9.79l-123.04 0zm-123.13 -37.1l245.03 0c46.51,0 81.73,4.89 105.52,14.58 23.81,9.68 42.12,23.68 54.93,41.99 12.83,18.31 19.26,39.53 19.26,63.69 0,24.82 -6.19,46.86 -18.68,66.09 -12.46,19.26 -30.43,34.42 -53.87,45.48 -23.44,11.09 -54.58,16.8 -93.29,17.28l124.67 153.59c10.27,12.83 16.91,20.64 20.16,23.55 7.94,7.12 16.32,12.49 25.08,16.09 8.76,3.62 18.55,5.5 29.5,5.5l8.52 0 0 28.68 -108.59 0 -174.23 -227.41 -60.88 0 0 146.95c0,16.32 0.58,26.56 1.64,30.67 2.57,7.7 6.54,13.18 12.01,16.32 5.61,3.15 16.32,4.79 32.31,4.79l12.12 0 0 28.68 -181.21 0 0 -28.68 16.32 0c12.25,0 20.4,-0.82 24.61,-2.35 4.21,-1.61 7.94,-4.42 11.19,-8.39 3.39,-3.97 5.71,-8.97 7.01,-15.16 0.45,-2.46 0.79,-13.86 1.03,-34.29l0 -312.08c0,-13.86 -1.4,-23.79 -4.07,-29.84 -2.67,-6.06 -6.54,-10.37 -11.43,-13.07 -4.79,-2.67 -13.31,-3.97 -25.29,-3.97l-19.37 -0.01 0 -28.68z"/>
   <path class="fil0" d="M1668.67 1158.2l150.31 0 141.13 377.51 137.13 -377.51 143.81 0 0 28.68 -12.15 0c-14.68,0 -24.47,1.3 -29.61,3.86 -5.03,2.43 -9,6.88 -11.91,13.18 -2.91,6.4 -4.42,16.8 -4.42,31.25l0 314.17c0,19.84 1.16,32.68 3.49,38.63 2.43,5.93 6.3,10.37 11.91,13.39 5.48,3.15 15.61,4.68 30.53,4.68l12.16 0 0 28.68 -180.53 0 0 -28.68 12.94 0c11.67,0 20.19,-0.95 25.53,-2.7 5.37,-1.85 9.79,-4.89 13.31,-9.1 3.49,-4.18 5.48,-8.63 5.95,-13.18 1.16,-9.31 1.75,-16.67 1.75,-21.91l0 -350.68 -154.99 426.24 -34.29 0.01 -157.08 -420.18 0 337.61c0,17.14 1.51,28.81 4.42,34.87 3.04,6.06 7.59,10.74 13.89,14 6.3,3.39 17.49,5.03 33.71,5.03l10.94 -0.01 0 28.68 -167.93 0 0 -28.68 9.55 0c16.22,0 27.75,-1.75 34.77,-5.13 6.98,-3.39 11.88,-8.28 14.92,-14.47 2.91,-6.3 4.44,-18.65 4.44,-37.09l0.01 -312.06c0,-17.15 -1.3,-28.47 -3.76,-33.95 -2.54,-5.61 -6.75,-9.68 -12.46,-12.36 -5.82,-2.7 -16.22,-4.1 -31.04,-4.1l-16.43 0 0 -28.68z"/>
   <path class="fil0" d="M2256.78 1158.2l387.64 0 44.79 125.15 -30.11 11.3c-7.57,-20.53 -15.74,-36.62 -24.71,-48.29 -8.86,-11.77 -19.58,-21.67 -32.07,-29.85 -12.49,-8.28 -24.95,-13.65 -37.68,-16.43 -12.7,-2.7 -35.69,-4.1 -68.79,-4.1l-115.93 0 0 174.94 57.62 0.01c21.22,0 37.2,-3.62 48.05,-10.85 10.85,-7.12 18.41,-16.09 22.52,-26.96 3.15,-7.91 4.76,-21.91 4.76,-41.72l0 -7.94 33.6 0 0 209.21 -33.6 -0.01 0 -18.07c0,-15.98 -1.16,-27.52 -3.6,-34.53 -2.33,-7.09 -6.77,-13.76 -13.2,-20.03 -6.4,-6.32 -13.28,-10.5 -20.74,-12.86 -7.36,-2.2 -20.06,-3.36 -37.78,-3.36l-57.63 0 0 154.41c0,16.09 0.71,25.88 2.22,29.37 1.53,3.52 3.97,6.06 7.36,7.7 3.49,1.51 12.83,2.33 28.1,2.33l71.72 0c40.01,0 71.25,-4.76 93.77,-14.34 22.49,-9.55 42.33,-24.13 59.45,-43.84 13.44,-15.29 26.38,-36.96 38.6,-64.96l31.14 10.95 -53.18 149.28 -402.32 0.01 0 -28.68 13.65 0c15.85,0 25.64,-1.06 29.5,-3.04 5.93,-3.04 10.5,-7.7 13.65,-14.34 2.2,-4.44 3.36,-14.34 3.36,-29.5l0.01 -328.2c0,-14.92 -1.51,-24.95 -4.42,-29.95 -2.91,-5.03 -8.04,-9 -15.29,-11.67 -3.84,-1.64 -17.36,-2.46 -40.45,-2.46l-0.01 -28.68z"/>
   <path class="fil0" d="M2826.79 1195.3l0 200.1 73.61 0c37.2,0 63.21,-3.25 78.13,-9.9 15.05,-6.67 27.41,-18.07 37.2,-34.42 9.79,-16.32 14.68,-35.32 14.68,-57.26 0,-24.02 -5.72,-43.95 -17.15,-60.06 -11.4,-16.09 -26.93,-26.93 -46.51,-32.65 -13.65,-3.84 -40.35,-5.82 -80.01,-5.82l-59.95 0.01zm-124.53 -37.1l188.33 0c57.15,0 96.57,3.62 118.27,10.95 27.04,8.76 49.45,23.57 67.18,44.56 17.59,21.11 26.46,47.81 26.46,80.25 0,27.62 -6.75,51.54 -20.16,71.73 -16.22,24.13 -35.93,41.38 -59,51.51 -23.1,10.16 -59.61,15.29 -109.27,15.29l-87.28 0.01 0 121.05c0,18.31 1.06,29.84 3.04,34.63 2.8,6.64 6.54,11.32 11.19,13.89 4.79,2.67 14.47,3.97 28.92,3.97l16.33 0 0 28.68 -184.01 0 0 -28.68 11.19 0c15.64,0 26.35,-1.3 31.96,-3.97 5.71,-2.57 9.79,-6.64 12.36,-12.14 2.67,-5.58 3.97,-16.09 3.97,-31.49l-0.01 -326.07c0,-15.16 -1.16,-25.29 -3.62,-30.43 -2.33,-5.24 -6.3,-8.97 -11.88,-11.43 -5.48,-2.46 -16.46,-3.62 -32.78,-3.62l-11.19 -0.01 0 -28.68z"/>
   <path class="fil0" d="M3198.22 1424.8l147.08 0 -73.37 -205.03 -73.71 205.03zm59.37 -266.6l57.02 0 147.66 398.49c7.22,19.95 14.55,33.23 22.01,39.66 7.36,6.4 17.38,9.68 29.87,9.68l7.58 0.01 0 28.68 -169.44 0 0 -28.68c5.48,-0.48 10.72,-0.71 15.98,-0.71 10.95,0 18.18,-1.16 21.56,-3.39 6.64,-4.31 9.92,-9.79 9.92,-16.32 0,-4.79 -3.15,-16.56 -9.58,-35.11l-32.17 -92.13 -171.9 -0.01 -37.09 102.98c-3.84,10.74 -5.72,18.1 -5.72,22.17 0,4.55 1.19,8.52 3.52,11.91 2.43,3.49 5.72,6.06 9.79,7.67 4.07,1.75 10.72,2.57 19.82,2.57 6.19,0 11.19,0.13 15.05,0.37l0 28.68 -142.5 0 0 -28.68c13.18,0 22.73,-1.3 28.55,-3.97 5.72,-2.57 10.85,-6.77 15.19,-12.59 4.31,-5.71 10,-17.97 17.12,-36.62l147.76 -394.66z"/>
   <g>
    <path class="fil1 str0" d="M24.99 481.9c79.77,-97.58 162.22,-194.05 239.16,-271.22 77.68,-77.95 150.15,-136.52 209.34,-157.45 83.5,-29.5 174.97,-38.26 264.82,-14.84 78.37,20.43 155.36,65.25 224.47,142.05 52.28,58.08 77.87,146.05 78.34,235 0.48,90.94 -25.21,183.36 -75.38,246.27 -98.93,123.98 -209.21,157.06 -302.05,141.53 -49.87,-8.33 -94.59,-30.77 -129.67,-60.72 -35.08,-29.9 -60.67,-67.39 -72.34,-105.83 -18.36,-60.54 -2.7,-123.45 63.66,-163.86 37.62,-22.91 79.4,-34.05 118.06,-32.7 21.48,0.77 42.07,5.37 60.46,13.94 18.52,8.63 34.77,21.19 47.55,37.81 16.67,21.72 27.38,50.35 29.32,86.07 10.19,-11.56 19.16,-26.7 26.09,-44.05 11.22,-28.05 16.99,-61.65 13.92,-95.22 -3.02,-33.28 -14.74,-66.49 -38.39,-94.14 -19.9,-23.28 -48.42,-42.76 -87.47,-55.14 -36.27,-11.51 -73.69,-17.01 -110.57,-17.01 -66.91,0 -132.19,18.07 -186.58,50.93 -54.35,32.83 -97.95,80.49 -121.63,139.65 -12.57,31.41 -19.55,66.12 -19.55,103.66 0,65.51 7.73,117.32 27.97,164.23 20.21,46.88 53.18,89.43 103.64,136.47 13.65,12.73 28.15,24.61 43.31,35.61 76.09,55.14 170.6,89.01 264.87,92.95 93.77,3.97 187.4,-21.72 262.36,-85.54 11.32,-9.63 22.23,-20.13 32.57,-31.43 51.96,-56.86 120.07,-142.24 195.45,-236.78 190.47,-238.76 427.51,-535.91 577.45,-588.91 83.5,-29.5 174.94,-38.26 264.82,-14.84 78.34,20.43 155.34,65.25 224.45,142.05 52.28,58.08 77.87,146.05 78.37,235 0.48,90.94 -25.21,183.36 -75.41,246.27 -98.9,123.98 -209.21,157.06 -302.02,141.53 -49.9,-8.33 -94.59,-30.77 -129.67,-60.72 -35.08,-29.9 -60.67,-67.39 -72.34,-105.83 -18.39,-60.54 -2.7,-123.45 63.63,-163.86 37.7,-22.97 80.43,-34.08 120.28,-32.68 22.57,0.77 44.24,5.58 63.58,14.47 19.5,8.97 36.64,22.09 49.95,39.45 16.48,21.46 27.12,49.37 29.16,83.93 10.19,-11.59 19.16,-26.72 26.11,-44.08 11.22,-28.07 16.99,-61.67 13.92,-95.25 -3.02,-33.28 -14.74,-66.49 -38.39,-94.14 -19.9,-23.28 -48.39,-42.73 -87.44,-55.14 -36.3,-11.51 -73.69,-17.01 -110.6,-17.01 -66.91,0 -132.16,18.07 -186.56,50.93 -54.37,32.83 -97.98,80.49 -121.66,139.65 -12.54,31.41 -19.53,66.12 -19.53,103.66 0,65.51 7.73,117.32 27.97,164.23 20.21,46.88 53.15,89.43 103.64,136.47 13.63,12.73 28.13,24.61 43.29,35.61 76.09,55.14 170.6,89.01 264.87,92.95 93.79,3.97 187.4,-21.72 262.36,-85.54 11.35,-9.63 22.25,-20.13 32.57,-31.43 51.96,-56.86 120.07,-142.24 195.47,-236.78 190.47,-238.76 427.51,-535.91 577.43,-588.91 83.5,-29.5 174.97,-38.26 264.82,-14.84 78.37,20.43 155.36,65.25 224.47,142.05 52.28,58.08 77.87,146.05 78.34,235 0.5,90.94 -25.21,183.36 -75.41,246.27 -98.87,123.98 -209.21,157.06 -302.02,141.53 -49.87,-8.33 -94.59,-30.77 -129.67,-60.72 -35.08,-29.9 -60.67,-67.39 -72.34,-105.83 -18.39,-60.54 -2.7,-123.45 63.63,-163.86 37.62,-22.91 79.08,-34.03 117.37,-32.7 21.14,0.74 41.35,5.29 59.4,13.73 18.2,8.49 34.18,20.93 46.78,37.31 16.75,21.78 27.49,50.64 29.37,86.76 10.19,-11.56 19.13,-26.7 26.06,-44.03 11.24,-28.05 16.99,-61.65 13.92,-95.22 -3.02,-33.28 -14.74,-66.49 -38.39,-94.14 -19.9,-23.28 -48.42,-42.76 -87.44,-55.14 -36.3,-11.51 -73.71,-17.01 -110.6,-17.01 -66.91,0 -132.16,18.07 -186.56,50.93 -54.37,32.83 -97.98,80.49 -121.66,139.65 -12.54,31.41 -19.53,66.12 -19.53,103.66 0,65.51 7.73,117.32 27.97,164.23 20.21,46.88 53.15,89.43 103.61,136.47 13.65,12.73 28.15,24.61 43.31,35.61 76.09,55.14 170.6,89.01 264.87,92.95 93.79,3.97 187.4,-21.72 262.39,-85.54 11.32,-9.63 22.22,-20.13 32.54,-31.43 24.16,-26.43 51.96,-59.24 82.44,-96.33 30.64,-37.28 63.61,-78.48 98.21,-121.87l16.67 10.56c-34.9,43.76 -68.1,85.2 -98.37,122.08 -30.45,37.07 -58.42,70.06 -83.11,97.05 -10.98,12.01 -22.44,23.07 -34.29,33.15 -79.32,67.52 -178.33,94.69 -277.44,90.54 -98.64,-4.15 -197.38,-39.48 -276.81,-97.05 -15.93,-11.56 -31.09,-23.97 -45.24,-37.15 -52.28,-48.76 -86.57,-93.16 -107.87,-142.56 -21.27,-49.32 -29.4,-103.13 -29.4,-170.71 0,-39.61 7.41,-76.39 20.74,-109.72 25.21,-62.97 71.6,-113.69 129.49,-148.64 57.81,-34.92 127.08,-54.13 198.01,-54.13 39.11,0 78.79,5.85 117.4,18.1 43.1,13.68 74.74,35.32 96.92,61.28 26.25,30.67 39.21,67.26 42.55,103.74 3.31,36.17 -2.91,72.42 -15.03,102.71 -11.77,29.42 -29.29,53.55 -49.32,67.15l-17.28 11.72 0.87 -19.31c1.85,-42.49 -8.2,-75.04 -25.9,-98.08 -10.66,-13.86 -24.13,-24.34 -39.34,-31.43 -15.32,-7.17 -32.6,-11.03 -50.77,-11.67 -33.92,-1.19 -71.04,8.84 -104.99,29.53 -58.02,35.35 -71.62,90.7 -55.4,144.12 10.69,35.3 34.32,69.8 66.7,97.42 32.36,27.62 73.53,48.31 119.3,55.96 85.65,14.31 188.22,-17.14 281.6,-134.2 47.68,-59.77 72.1,-148.25 71.62,-235.64 -0.45,-85.12 -24.58,-168.94 -73.85,-223.68 -66.3,-73.69 -139.73,-116.58 -214.23,-136 -85.17,-22.2 -172.11,-13.78 -251.59,14.29 -144.28,50.99 -379.39,345.73 -568.3,582.56 -75.51,94.67 -143.72,180.15 -196.29,237.7 -10.98,12.01 -22.44,23.07 -34.29,33.15 -79.32,67.52 -178.33,94.69 -277.44,90.54 -98.64,-4.15 -197.41,-39.48 -276.81,-97.05 -15.95,-11.56 -31.09,-23.97 -45.24,-37.15 -52.28,-48.76 -86.57,-93.16 -107.87,-142.56 -21.27,-49.32 -29.4,-103.13 -29.4,-170.71 0,-39.61 7.41,-76.39 20.74,-109.72 25.19,-62.97 71.62,-113.69 129.49,-148.64 57.84,-34.92 127.08,-54.13 198.01,-54.13 39.11,0 78.79,5.85 117.4,18.1 43.13,13.68 74.72,35.32 96.89,61.28 26.27,30.67 39.24,67.28 42.57,103.74 3.28,36.17 -2.94,72.42 -15.05,102.74 -11.75,29.4 -29.26,53.53 -49.29,67.12l-17.28 11.72 0.87 -19.31c1.77,-40.75 -8.23,-72.34 -25.74,-95.17 -11.35,-14.74 -25.9,-25.9 -42.44,-33.52 -16.67,-7.67 -35.45,-11.8 -55.03,-12.49 -35.56,-1.24 -73.87,8.81 -107.92,29.53 -58,35.35 -71.6,90.7 -55.4,144.12 10.72,35.3 34.32,69.8 66.73,97.42 32.36,27.62 73.5,48.31 119.27,55.96 85.67,14.31 188.22,-17.14 281.6,-134.2 47.7,-59.77 72.13,-148.25 71.65,-235.64 -0.45,-85.12 -24.61,-168.94 -73.85,-223.68 -66.33,-73.69 -139.75,-116.58 -214.23,-136 -85.2,-22.2 -172.11,-13.78 -251.62,14.29 -144.25,50.99 -379.36,345.73 -568.3,582.56 -75.49,94.67 -143.7,180.15 -196.27,237.7 -10.98,12.01 -22.46,23.07 -34.32,33.15 -79.32,67.52 -178.3,94.69 -277.42,90.54 -98.64,-4.15 -197.41,-39.48 -276.81,-97.05 -15.95,-11.56 -31.09,-23.97 -45.24,-37.15 -52.28,-48.76 -86.6,-93.16 -107.87,-142.56 -21.3,-49.32 -29.4,-103.13 -29.4,-170.71 0,-39.61 7.41,-76.39 20.74,-109.72 25.21,-62.97 71.6,-113.69 129.46,-148.64 57.84,-34.92 127.11,-54.13 198.04,-54.13 39.08,0 78.79,5.85 117.4,18.1 43.1,13.68 74.72,35.32 96.89,61.28 26.25,30.67 39.24,67.26 42.54,103.74 3.31,36.17 -2.91,72.42 -15.03,102.71 -11.75,29.42 -29.26,53.55 -49.32,67.15l-17.25 11.72 0.87 -19.32c1.85,-42.04 -8.2,-74.35 -25.88,-97.34 -10.82,-14.1 -24.53,-24.74 -40.08,-31.99 -15.66,-7.28 -33.28,-11.22 -51.81,-11.85 -34.34,-1.19 -71.75,8.84 -105.73,29.53 -58.02,35.35 -71.62,90.7 -55.4,144.12 10.72,35.3 34.32,69.8 66.7,97.42 32.38,27.62 73.53,48.31 119.3,55.96 85.65,14.31 188.22,-17.14 281.6,-134.2 47.68,-59.77 72.1,-148.25 71.62,-235.64 -0.45,-85.12 -24.58,-168.94 -73.85,-223.68 -66.3,-73.69 -139.75,-116.58 -214.21,-136 -85.2,-22.2 -172.11,-13.78 -251.62,14.29 -55.91,19.76 -125.89,76.62 -201.59,152.61 -76.46,76.7 -158.51,172.72 -237.94,269.88l-16.5 -10.72z"/>
    <path id="1" class="fil2" d="M24.99 481.9c79.77,-97.58 162.22,-194.05 239.16,-271.22 77.68,-77.95 150.15,-136.52 209.34,-157.45 83.5,-29.5 174.97,-38.26 264.82,-14.84 78.37,20.43 155.36,65.25 224.47,142.05 52.28,58.08 77.87,146.05 78.34,235 0.48,90.94 -25.21,183.36 -75.38,246.27 -98.93,123.98 -209.21,157.06 -302.05,141.53 -49.87,-8.33 -94.59,-30.77 -129.67,-60.72 -35.08,-29.9 -60.67,-67.39 -72.34,-105.83 -18.36,-60.54 -2.7,-123.45 63.66,-163.86 37.62,-22.91 79.4,-34.05 118.06,-32.7 21.48,0.77 42.07,5.37 60.46,13.94 18.52,8.63 34.77,21.19 47.55,37.81 16.67,21.72 27.38,50.35 29.32,86.07 10.19,-11.56 19.16,-26.7 26.09,-44.05 11.22,-28.05 16.99,-61.65 13.92,-95.22 -3.02,-33.28 -14.74,-66.49 -38.39,-94.14 -19.9,-23.28 -48.42,-42.76 -87.47,-55.14 -36.27,-11.51 -73.69,-17.01 -110.57,-17.01 -66.91,0 -132.19,18.07 -186.58,50.93 -54.35,32.83 -97.95,80.49 -121.63,139.65 -12.57,31.41 -19.55,66.12 -19.55,103.66 0,65.51 7.73,117.32 27.97,164.23 20.21,46.88 53.18,89.43 103.64,136.47 13.65,12.73 28.15,24.61 43.31,35.61 76.09,55.14 170.6,89.01 264.87,92.95 93.77,3.97 187.4,-21.72 262.36,-85.54 11.32,-9.63 22.23,-20.13 32.57,-31.43 51.96,-56.86 120.07,-142.24 195.45,-236.78 190.47,-238.76 427.51,-535.91 577.45,-588.91 83.5,-29.5 174.94,-38.26 264.82,-14.84 78.34,20.43 155.34,65.25 224.45,142.05 52.28,58.08 77.87,146.05 78.37,235 0.48,90.94 -25.21,183.36 -75.41,246.27 -98.9,123.98 -209.21,157.06 -302.02,141.53 -49.9,-8.33 -94.59,-30.77 -129.67,-60.72 -35.08,-29.9 -60.67,-67.39 -72.34,-105.83 -18.39,-60.54 -2.7,-123.45 63.63,-163.86 37.7,-22.97 80.43,-34.08 120.28,-32.68 22.57,0.77 44.24,5.58 63.58,14.47 19.5,8.97 36.64,22.09 49.95,39.45 16.48,21.46 27.12,49.37 29.16,83.93 10.19,-11.59 19.16,-26.72 26.11,-44.08 11.22,-28.07 16.99,-61.67 13.92,-95.25 -3.02,-33.28 -14.74,-66.49 -38.39,-94.14 -19.9,-23.28 -48.39,-42.73 -87.44,-55.14 -36.3,-11.51 -73.69,-17.01 -110.6,-17.01 -66.91,0 -132.16,18.07 -186.56,50.93 -54.37,32.83 -97.98,80.49 -121.66,139.65 -12.54,31.41 -19.53,66.12 -19.53,103.66 0,65.51 7.73,117.32 27.97,164.23 20.21,46.88 53.15,89.43 103.64,136.47 13.63,12.73 28.13,24.61 43.29,35.61 76.09,55.14 170.6,89.01 264.87,92.95 93.79,3.97 187.4,-21.72 262.36,-85.54 11.35,-9.63 22.25,-20.13 32.57,-31.43 51.96,-56.86 120.07,-142.24 195.47,-236.78 190.47,-238.76 427.51,-535.91 577.43,-588.91 83.5,-29.5 174.97,-38.26 264.82,-14.84 78.37,20.43 155.36,65.25 224.47,142.05 52.28,58.08 77.87,146.05 78.34,235 0.5,90.94 -25.21,183.36 -75.41,246.27 -98.87,123.98 -209.21,157.06 -302.02,141.53 -49.87,-8.33 -94.59,-30.77 -129.67,-60.72 -35.08,-29.9 -60.67,-67.39 -72.34,-105.83 -18.39,-60.54 -2.7,-123.45 63.63,-163.86 37.62,-22.91 79.08,-34.03 117.37,-32.7 21.14,0.74 41.35,5.29 59.4,13.73 18.2,8.49 34.18,20.93 46.78,37.31 16.75,21.78 27.49,50.64 29.37,86.76 10.19,-11.56 19.13,-26.7 26.06,-44.03 11.24,-28.05 16.99,-61.65 13.92,-95.22 -3.02,-33.28 -14.74,-66.49 -38.39,-94.14 -19.9,-23.28 -48.42,-42.76 -87.44,-55.14 -36.3,-11.51 -73.71,-17.01 -110.6,-17.01 -66.91,0 -132.16,18.07 -186.56,50.93 -54.37,32.83 -97.98,80.49 -121.66,139.65 -12.54,31.41 -19.53,66.12 -19.53,103.66 0,65.51 7.73,117.32 27.97,164.23 20.21,46.88 53.15,89.43 103.61,136.47 13.65,12.73 28.15,24.61 43.31,35.61 76.09,55.14 170.6,89.01 264.87,92.95 93.79,3.97 187.4,-21.72 262.39,-85.54 11.32,-9.63 22.22,-20.13 32.54,-31.43 24.16,-26.43 51.96,-59.24 82.44,-96.33 30.64,-37.28 63.61,-78.48 98.21,-121.87l16.67 10.56c-34.9,43.76 -68.1,85.2 -98.37,122.08 -30.45,37.07 -58.42,70.06 -83.11,97.05 -10.98,12.01 -22.44,23.07 -34.29,33.15 -79.32,67.52 -178.33,94.69 -277.44,90.54 -98.64,-4.15 -197.38,-39.48 -276.81,-97.05 -15.93,-11.56 -31.09,-23.97 -45.24,-37.15 -52.28,-48.76 -86.57,-93.16 -107.87,-142.56 -21.27,-49.32 -29.4,-103.13 -29.4,-170.71 0,-39.61 7.41,-76.39 20.74,-109.72 25.21,-62.97 71.6,-113.69 129.49,-148.64 57.81,-34.92 127.08,-54.13 198.01,-54.13 39.11,0 78.79,5.85 117.4,18.1 43.1,13.68 74.74,35.32 96.92,61.28 26.25,30.67 39.21,67.26 42.55,103.74 3.31,36.17 -2.91,72.42 -15.03,102.71 -11.77,29.42 -29.29,53.55 -49.32,67.15l-17.28 11.72 0.87 -19.31c1.85,-42.49 -8.2,-75.04 -25.9,-98.08 -10.66,-13.86 -24.13,-24.34 -39.34,-31.43 -15.32,-7.17 -32.6,-11.03 -50.77,-11.67 -33.92,-1.19 -71.04,8.84 -104.99,29.53 -58.02,35.35 -71.62,90.7 -55.4,144.12 10.69,35.3 34.32,69.8 66.7,97.42 32.36,27.62 73.53,48.31 119.3,55.96 85.65,14.31 188.22,-17.14 281.6,-134.2 47.68,-59.77 72.1,-148.25 71.62,-235.64 -0.45,-85.12 -24.58,-168.94 -73.85,-223.68 -66.3,-73.69 -139.73,-116.58 -214.23,-136 -85.17,-22.2 -172.11,-13.78 -251.59,14.29 -144.28,50.99 -379.39,345.73 -568.3,582.56 -75.51,94.67 -143.72,180.15 -196.29,237.7 -10.98,12.01 -22.44,23.07 -34.29,33.15 -79.32,67.52 -178.33,94.69 -277.44,90.54 -98.64,-4.15 -197.41,-39.48 -276.81,-97.05 -15.95,-11.56 -31.09,-23.97 -45.24,-37.15 -52.28,-48.76 -86.57,-93.16 -107.87,-142.56 -21.27,-49.32 -29.4,-103.13 -29.4,-170.71 0,-39.61 7.41,-76.39 20.74,-109.72 25.19,-62.97 71.62,-113.69 129.49,-148.64 57.84,-34.92 127.08,-54.13 198.01,-54.13 39.11,0 78.79,5.85 117.4,18.1 43.13,13.68 74.72,35.32 96.89,61.28 26.27,30.67 39.24,67.28 42.57,103.74 3.28,36.17 -2.94,72.42 -15.05,102.74 -11.75,29.4 -29.26,53.53 -49.29,67.12l-17.28 11.72 0.87 -19.31c1.77,-40.75 -8.23,-72.34 -25.74,-95.17 -11.35,-14.74 -25.9,-25.9 -42.44,-33.52 -16.67,-7.67 -35.45,-11.8 -55.03,-12.49 -35.56,-1.24 -73.87,8.81 -107.92,29.53 -58,35.35 -71.6,90.7 -55.4,144.12 10.72,35.3 34.32,69.8 66.73,97.42 32.36,27.62 73.5,48.31 119.27,55.96 85.67,14.31 188.22,-17.14 281.6,-134.2 47.7,-59.77 72.13,-148.25 71.65,-235.64 -0.45,-85.12 -24.61,-168.94 -73.85,-223.68 -66.33,-73.69 -139.75,-116.58 -214.23,-136 -85.2,-22.2 -172.11,-13.78 -251.62,14.29 -144.25,50.99 -379.36,345.73 -568.3,582.56 -75.49,94.67 -143.7,180.15 -196.27,237.7 -10.98,12.01 -22.46,23.07 -34.32,33.15 -79.32,67.52 -178.3,94.69 -277.42,90.54 -98.64,-4.15 -197.41,-39.48 -276.81,-97.05 -15.95,-11.56 -31.09,-23.97 -45.24,-37.15 -52.28,-48.76 -86.6,-93.16 -107.87,-142.56 -21.3,-49.32 -29.4,-103.13 -29.4,-170.71 0,-39.61 7.41,-76.39 20.74,-109.72 25.21,-62.97 71.6,-113.69 129.46,-148.64 57.84,-34.92 127.11,-54.13 198.04,-54.13 39.08,0 78.79,5.85 117.4,18.1 43.1,13.68 74.72,35.32 96.89,61.28 26.25,30.67 39.24,67.26 42.54,103.74 3.31,36.17 -2.91,72.42 -15.03,102.71 -11.75,29.42 -29.26,53.55 -49.32,67.15l-17.25 11.72 0.87 -19.32c1.85,-42.04 -8.2,-74.35 -25.88,-97.34 -10.82,-14.1 -24.53,-24.74 -40.08,-31.99 -15.66,-7.28 -33.28,-11.22 -51.81,-11.85 -34.34,-1.19 -71.75,8.84 -105.73,29.53 -58.02,35.35 -71.62,90.7 -55.4,144.12 10.72,35.3 34.32,69.8 66.7,97.42 32.38,27.62 73.53,48.31 119.3,55.96 85.65,14.31 188.22,-17.14 281.6,-134.2 47.68,-59.77 72.1,-148.25 71.62,-235.64 -0.45,-85.12 -24.58,-168.94 -73.85,-223.68 -66.3,-73.69 -139.75,-116.58 -214.21,-136 -85.2,-22.2 -172.11,-13.78 -251.62,14.29 -55.91,19.76 -125.89,76.62 -201.59,152.61 -76.46,76.7 -158.51,172.72 -237.94,269.88l-16.5 -10.72z"/>
   </g>
  </g>
 </g>
</svg>
