<?xml version="1.0" standalone="no"?>
<!DOCTYPE svg PUBLIC "-//W3C//DTD SVG 20010904//EN"
 "http://www.w3.org/TR/2001/REC-SVG-20010904/DTD/svg10.dtd">
<svg version="1.0" xmlns="http://www.w3.org/2000/svg"
 width="1024.000000pt" height="1024.000000pt" viewBox="0 0 1024.000000 1024.000000"
 preserveAspectRatio="xMidYMid meet">

<g transform="translate(0.000000,1024.000000) scale(0.100000,-0.100000)"
fill="#000000" stroke="none">
<path d="M2560 6485 c-213 -48 -320 -102 -502 -252 -95 -79 -255 -274 -297
-363 -10 -22 -8 -21 11 5 163 212 468 385 748 425 299 43 643 -55 846 -242 94
-87 184 -240 226 -385 31 -106 33 -370 4 -478 -42 -159 -133 -309 -239 -396
-117 -96 -327 -180 -484 -195 l-58 -5 -66 108 -65 108 72 21 c180 52 308 186
345 363 16 79 7 214 -20 283 -86 224 -361 388 -648 388 -136 0 -225 -21 -348
-80 -176 -85 -305 -214 -395 -395 -65 -133 -91 -238 -98 -397 -13 -344 100
-624 349 -864 103 -98 170 -148 280 -207 177 -95 347 -137 559 -137 156 0 274
20 392 65 340 132 583 387 697 733 46 137 48 170 6 83 -175 -367 -528 -621
-917 -661 -169 -17 -378 15 -528 81 -137 61 -298 192 -386 315 -57 80 -119
210 -146 309 -29 108 -32 328 -5 425 63 230 231 399 452 455 83 21 219 19 294
-4 141 -44 216 -141 216 -281 0 -137 -68 -231 -194 -270 -52 -17 -92 -20 -232
-20 -93 0 -169 -1 -169 -3 0 -15 470 -751 498 -780 69 -71 210 -122 316 -115
l45 3 -75 110 c-41 60 -71 111 -67 112 4 1 58 9 119 17 337 48 559 183 676
411 88 172 132 312 148 475 28 272 -44 537 -210 780 -74 107 -155 185 -289
275 -119 79 -224 126 -362 161 -131 33 -392 43 -499 19z"/>
<path d="M5595 5866 c-51 -19 -102 -74 -111 -120 -19 -104 39 -174 180 -219
98 -32 126 -53 126 -96 0 -44 -40 -71 -104 -71 -53 0 -88 17 -122 57 l-19 23
-43 -20 -43 -20 18 -31 c57 -100 227 -138 338 -76 58 33 85 78 85 144 0 100
-45 148 -176 189 -101 32 -134 55 -134 93 0 74 124 91 193 27 26 -24 28 -24
67 -9 22 9 40 20 40 24 0 17 -55 71 -93 91 -53 27 -149 33 -202 14z"/>
<path d="M6190 5871 c-135 -44 -201 -133 -208 -281 -7 -143 45 -243 155 -297
76 -37 175 -39 245 -4 112 54 175 172 165 306 -12 167 -110 271 -265 280 -37
3 -78 1 -92 -4z m150 -110 c106 -56 130 -246 44 -341 -91 -100 -249 -59 -283
74 -22 89 -11 161 37 225 44 60 134 79 202 42z"/>
<path d="M7941 5869 c-39 -12 -99 -49 -123 -75 -110 -126 -97 -364 27 -472 74
-65 208 -78 305 -29 46 23 119 113 103 127 -4 4 -25 13 -45 19 -37 12 -38 12
-75 -27 -85 -89 -229 -54 -262 63 -40 145 17 285 123 300 70 11 140 -23 158
-76 3 -9 98 17 98 27 0 3 -6 17 -14 32 -18 35 -62 75 -106 97 -41 21 -142 28
-189 14z"/>
<path d="M4450 5571 l0 -301 50 0 49 0 3 113 3 112 55 0 55 0 54 -112 55 -113
58 0 c32 0 58 3 58 7 0 3 -27 58 -59 122 l-59 117 28 16 c16 9 38 35 49 57 43
84 16 194 -61 247 -40 28 -45 29 -190 32 l-148 4 0 -301z m290 169 c23 -30 26
-88 6 -116 -12 -15 -30 -20 -101 -24 -48 -3 -89 -3 -91 -1 -2 2 -4 42 -4 89
l0 84 86 -3 c77 -4 87 -6 104 -29z"/>
<path d="M5000 5570 l0 -300 188 0 187 0 -3 50 -4 50 -134 0 -134 0 0 75 0 74
121 3 122 3 1 48 1 47 -122 0 -123 0 0 75 0 75 135 0 135 0 0 50 0 50 -185 0
-185 0 0 -300z"/>
<path d="M6642 5642 l3 -229 30 -48 c43 -69 105 -100 200 -99 83 0 137 24 184
80 42 52 51 107 51 329 l0 195 -60 0 -60 0 0 -219 c0 -205 -1 -220 -21 -244
-47 -61 -161 -58 -199 6 -18 29 -20 52 -20 245 l0 212 -56 0 -55 0 3 -228z"/>
<path d="M7230 5570 l0 -300 55 0 55 0 0 115 0 115 55 0 55 0 57 -115 58 -115
57 0 c32 0 58 3 58 8 0 4 -27 58 -60 121 -62 118 -62 116 -18 141 24 14 58 91
58 133 0 76 -45 146 -115 178 -33 15 -65 19 -177 19 l-138 0 0 -300z m291 171
c31 -32 36 -64 17 -106 -13 -29 -27 -34 -126 -37 l-72 -3 0 88 0 87 76 0 c70
0 78 -2 105 -29z"/>
<path d="M8350 5570 l0 -300 190 0 190 0 0 50 0 50 -135 0 -135 0 0 75 0 75
120 0 120 0 0 50 0 50 -120 0 -120 0 0 75 0 75 135 0 135 0 0 50 0 50 -190 0
-190 0 0 -300z"/>
<path d="M4522 4713 c-57 -158 -104 -292 -105 -298 -1 -6 22 -10 53 -10 l55 0
24 68 23 67 104 0 c57 0 107 0 112 -1 4 0 18 -30 32 -67 l26 -67 52 -3 c38 -2
52 1 52 10 0 8 -47 142 -103 298 l-104 285 -59 3 -60 3 -102 -288z m232 -50
c7 -22 6 -23 -68 -23 -42 0 -76 4 -76 8 0 7 51 164 66 202 5 13 47 -89 78
-187z"/>
<path d="M5010 4786 c0 -133 4 -226 11 -247 50 -147 257 -200 376 -96 67 59
73 84 73 335 l0 222 -49 0 -50 0 -3 -217 c-3 -240 -8 -258 -69 -283 -45 -19
-116 -7 -148 24 l-26 26 -3 225 -3 225 -55 0 -54 0 0 -214z"/>
<path d="M5600 4701 l0 -301 113 0 c200 0 286 38 345 151 33 62 34 67 30 159
-6 140 -47 207 -158 258 -48 23 -72 26 -192 30 l-138 5 0 -302z m292 175 c97
-46 118 -228 37 -321 -35 -40 -80 -55 -161 -55 l-58 0 0 201 0 202 73 -5 c39
-3 89 -13 109 -22z"/>
<path d="M6190 4700 l0 -300 55 0 55 0 0 300 0 300 -55 0 -55 0 0 -300z"/>
<path d="M6397 4993 c-4 -3 -7 -26 -7 -50 l0 -43 90 0 90 0 -2 -247 -3 -248
53 -3 52 -3 0 250 0 251 85 0 85 0 0 50 0 50 -218 0 c-120 0 -222 -3 -225 -7z"/>
</g>
</svg>
